<svg width="83" height="91" viewBox="0 0 83 91" fill="none" xmlns="http://www.w3.org/2000/svg">
<path fill-rule="evenodd" clip-rule="evenodd" d="M35.2445 0.060822C35.5665 -0.0419828 35.8694 -0.000911086 36.1828 0.0837997C43.5255 2.06866 50.867 4.05793 58.2127 6.03148C62.251 7.1164 66.2966 8.17397 70.3389 9.24425C71.3555 9.5135 71.3193 9.51578 71.366 10.5565C71.4905 13.3344 71.4393 16.1135 71.4739 18.892C71.4966 20.708 70.8826 22.3167 69.8373 23.7443C65.6146 29.5115 61.367 35.2605 57.1128 41.0045C55.8368 42.7273 54.8155 44.598 53.7555 46.454C52.7862 48.151 51.6776 49.77 50.5904 51.3964C50.2678 51.879 50.1326 52.4059 49.9661 52.9346C49.5445 54.2727 48.5456 54.8942 47.1691 54.6579C46.9042 54.6123 46.6573 54.5676 46.4577 54.8094C45.0857 56.4713 43.3609 57.8091 42.1317 59.6068C41.1706 61.0124 40.2589 62.4335 39.6805 64.0515C39.5454 64.4295 39.6105 64.6345 39.9242 64.8494C42.1439 66.3699 44.4846 67.4611 47.2816 67.1508C48.8364 66.9782 50.3161 66.5036 51.8266 66.1483C55.3351 65.3233 58.751 64.1416 62.2864 63.4248C62.5968 63.3619 67.3053 63.3054 70.799 63.3204C71.8682 63.2372 74.4835 63.3642 74.6441 63.4151C77.2974 64.2551 79.5494 65.7048 81.2313 67.9474C82.2929 69.363 82.6138 71.0676 82.8432 72.7765C83.068 74.4513 83.1362 76.1382 82.4565 77.7316C81.7766 79.3251 80.693 80.6654 79.5867 81.9798C79.4354 82.1597 79.2599 82.268 79.0161 82.1127C78.7084 81.9166 78.7353 81.6603 78.8653 81.3825C79.3732 80.2979 79.8549 79.2024 80.2314 78.0633C80.2876 77.8933 80.3411 77.7222 80.4041 77.5037C80.4999 77.1835 80.5457 76.7482 80.7202 76.4656C80.1181 75.1337 79.0253 70.7409 78.9702 70.5985C77.4814 68.5763 75.4335 67.6556 72.9862 67.4336C71.6483 67.3123 70.3239 67.3471 68.9921 67.4555C68.4885 67.4966 68.1647 67.713 67.8889 68.1399C65.423 71.9575 62.6944 75.5614 59.3559 78.6707C55.801 81.9818 51.8802 84.7616 47.578 87.0136C44.7291 88.5048 41.7717 89.7371 38.786 90.9127C38.3912 91.0681 38.0488 90.9946 37.69 90.859C33.4917 89.2713 29.3681 87.5295 25.4816 85.2488C18.7843 81.3185 13.1698 76.179 8.44454 70.0369C7.65461 69.0101 6.98295 67.8924 6.22292 66.8413C5.87369 66.3583 5.9378 66.0036 6.32338 65.5806C8.55457 63.1321 10.7584 60.6584 12.9892 58.2093C16.4299 54.4322 19.8866 50.6697 23.333 46.8978C26.5102 43.4206 29.6772 39.9341 32.859 36.4611C35.7575 33.2972 38.6472 30.1243 41.5852 26.9974C43.1364 25.3466 43.2052 23.4622 42.6157 21.4667C42.343 20.5438 41.5666 20.0852 40.6297 19.957C40.1373 19.8897 39.6368 19.8456 39.1403 19.8494C34.8754 19.8824 30.617 19.4295 26.3542 19.6088C23.6138 19.7241 20.865 19.8552 18.1497 20.3C16.7815 20.5241 15.5732 21.2503 14.2624 21.6462C11.4758 22.4878 9.31975 24.3526 7.01991 25.9908C5.88302 26.8005 4.76156 27.6328 3.61044 28.4214C2.59871 29.1146 1.6098 28.9299 0.917993 27.9161C0.348115 27.0811 -0.0327156 26.1697 0.00221858 25.1189C0.137028 21.0636 0.248743 17.0074 0.397916 12.9527C0.423605 12.2546 0.494466 11.5557 0.46776 10.8576C0.450012 10.3934 0.640852 10.1727 1.07205 10.0482C3.82754 9.25301 6.57848 8.44178 9.33099 7.6363C15.7706 5.75167 22.206 3.85265 28.6523 1.99116C30.8522 1.3559 33.0625 0.757334 35.2445 0.060822ZM39.8304 7.95559C39.6681 7.895 39.4876 7.76445 39.3522 7.97779C39.2426 8.15069 39.401 8.27452 39.4866 8.40158C40.5005 9.90922 41.4909 11.434 42.539 12.9175C43.6555 14.4975 44.3959 16.1986 44.6117 18.1426C44.7787 19.6458 45.2865 21.0944 45.2917 22.6335C45.3028 26.0063 44.4425 29.1245 42.5924 31.931C39.9989 35.8654 37.3479 39.7618 34.7136 43.669C32.1023 47.5419 29.4286 51.3739 26.8865 55.292C25.6391 57.2144 24.6083 59.2832 24.284 61.6154C23.8023 65.0814 23.5413 68.5391 24.8869 71.8918C26.8856 76.8719 30.2109 80.4954 35.4007 82.2252C37.8751 83.05 40.411 83.0727 42.9672 82.9529C43.4842 82.9287 44 82.8777 44.57 82.8304C46.4784 82.6045 48.2742 82.1559 50.0963 81.5018C49.7911 81.1717 49.5212 81.2366 49.2625 81.3363C47.3756 82.0639 45.3876 82.276 43.4011 82.3548C42.0721 82.4075 40.7612 82.0377 39.4683 81.6986C38.7556 81.5117 38.0892 81.0192 37.1992 81.4752C37.3808 80.871 37.0369 80.7551 36.7154 80.603C33.3002 78.9868 31.3067 76.2022 30.1811 72.6734C29.7905 71.4491 29.5251 70.206 29.3137 68.9451C29.2939 68.8277 29.2973 68.6717 29.2248 68.6032C28.3411 67.7685 28.6345 66.7062 28.7274 65.7286C28.8636 64.2946 29.2752 62.9103 29.7773 61.5588C29.8119 61.4658 29.8516 61.371 29.9084 61.2909C30.0125 61.1437 30.1355 60.9706 30.3397 61.0488C30.5432 61.127 30.545 61.3422 30.499 61.5163C30.3715 61.9988 30.2367 62.4805 30.0757 62.9525C29.4746 64.7153 29.4427 66.4664 30.06 68.2407C30.2843 68.8857 30.0871 69.1715 30.499 69.764C30.7651 70.1467 30.7088 71.2638 31.051 71.5286C31.0029 72.2597 31.5091 72.8524 31.9943 73.3392C33.056 74.4043 34.0204 75.5843 35.3257 76.3838C35.4953 76.4876 35.6558 76.6625 35.8588 76.626C36.9876 76.9632 37.8737 77.4125 38.786 77.7168C39.8398 78.0684 39.6644 78.1004 40.7549 78.1926C40.8925 78.2042 41.3744 78.3316 41.8843 78.168C41.8731 78.1757 41.862 78.1838 41.8511 78.1926C43.001 78.4424 44.1123 78.2804 45.1986 78.1177C48.7108 77.5918 51.8495 76.1232 54.7627 74.1323C55.0681 73.9237 55.4505 73.7933 55.5865 73.3866C55.6194 73.2881 55.7207 73.2495 55.827 73.2364C56.3983 73.1667 56.8386 72.8638 57.1128 72.3785C57.4004 71.8697 57.9677 71.8288 58.3869 71.5632C60.1355 70.4551 61.9765 69.5013 63.846 68.6091C63.9696 68.5501 64.1084 68.5201 64.2428 68.4873C64.4238 68.4432 66.3531 67.4182 66.5055 67.3024C66.6129 67.221 66.7423 67.1535 66.8721 67.1193C70.2107 66.2388 73.5167 66.0908 76.7246 67.6359C77.7041 68.1077 78.5457 68.7738 79.221 69.6431C79.7609 69.9609 81.168 74.4382 81.1745 76.1833C81.6392 76.2388 79.8833 79.1695 80.4041 79.8429C81.1352 78.9151 82.1327 76.2977 82.1632 75.1165C82.2136 73.1645 81.9107 71.2571 81.1815 69.4346C80.5755 67.92 79.3769 66.9293 78.1129 66.0049C77.0941 65.2598 75.966 64.7094 74.821 64.1935C74.6057 64.0965 72.8465 63.956 71.6005 63.7665C68.1834 63.9373 62.9793 63.9862 62.704 64.0611C58.2839 65.2618 53.874 66.505 49.4315 67.6167C45.6509 68.5628 42.204 67.7494 39.2016 65.2165C38.5379 64.6566 38.0354 63.9951 38.0154 63.0549C38.0038 62.5092 37.6298 62.1006 37.3378 61.6773C37.0645 61.2813 36.9321 60.859 36.9493 60.3835C37.0031 58.8909 36.8953 57.3806 37.4217 55.9387C37.4764 55.789 37.5491 55.6457 37.6066 55.4969C38.0904 54.2449 39.0263 53.7892 40.3343 53.6862C41.7277 53.5765 43.0205 53.8949 44.3338 54.2137C45.2719 54.4414 46.1688 54.5878 47.1111 54.0777C47.6246 53.7997 48.3221 53.9129 48.8129 53.4492C49.0844 53.1928 49.2509 52.9207 49.3505 52.5512C49.7117 51.2111 50.1916 49.9192 50.9713 48.7504C51.332 48.2095 51.7037 47.6458 51.6677 46.9434C51.6499 46.595 51.8743 46.4461 52.1333 46.3213C52.6204 46.0866 52.9756 45.7332 53.1887 45.2282C53.3452 44.8573 53.3821 44.5024 53.1905 44.1328C53.0898 43.9383 53.0113 43.7315 52.9332 43.5262C52.7193 42.9639 52.7929 42.4882 53.29 42.0824C53.7675 41.6927 54.2133 41.2619 54.6556 40.8313C55.3942 40.1122 55.4516 39.5697 54.8449 38.7199C53.9335 37.4431 53.2748 36.0353 52.6522 34.6053C52.1914 33.5469 52.0901 32.4562 52.2773 31.3206C52.4525 30.258 52.5772 29.1869 52.7501 28.1238C52.8138 27.7315 52.7011 27.3703 52.6541 26.9968C52.5436 26.1186 52.5337 25.2179 52.6813 24.3682C52.9327 22.9195 52.5844 21.6009 52.1625 20.2613C51.6038 18.4879 51.0676 16.7004 50.0294 15.1374C48.1919 12.3715 45.7232 10.3426 42.6818 9.03115C41.7499 8.62932 40.7821 8.31099 39.8304 7.95559ZM42.1373 78.062C42.0532 78.1067 41.9683 78.1411 41.8843 78.168C41.9628 78.1149 42.0508 78.0878 42.1373 78.062ZM42.5306 77.7654C42.4551 77.9696 42.2991 78.0138 42.1373 78.062C42.272 77.9906 42.4051 77.8943 42.5306 77.7654Z" fill="#965D7F"/>
</svg>
