<svg width="90" height="112" viewBox="0 0 90 112" fill="none" xmlns="http://www.w3.org/2000/svg">
<g clip-path="url(#clip0_91_96)">
<mask id="mask0_91_96" style="mask-type:luminance" maskUnits="userSpaceOnUse" x="0" y="0" width="90" height="112">
<path d="M90 0H0V112H90V0Z" fill="white"/>
</mask>
<g mask="url(#mask0_91_96)">
<path fill-rule="evenodd" clip-rule="evenodd" d="M38.7887 6.18813C39.0818 6.09442 39.3573 6.13186 39.6426 6.20908C46.324 8.01839 53.0045 9.83173 59.6887 11.6307C63.3634 12.6197 67.0447 13.5837 70.7229 14.5594C71.6479 14.8048 71.6151 14.8069 71.6575 15.7556C71.7708 18.2877 71.7242 20.8211 71.7557 23.3539C71.7764 25.0093 71.2177 26.4757 70.2665 27.777C66.424 33.0341 62.5589 38.2747 58.6878 43.5107C57.5268 45.0811 56.5974 46.7864 55.6329 48.4782C54.7508 50.0251 53.7421 51.5009 52.7527 52.9835C52.4592 53.4234 52.3362 53.9037 52.1847 54.3856C51.8011 55.6054 50.8921 56.172 49.6395 55.9565C49.3985 55.9149 49.1739 55.8742 48.9922 56.0946C47.7438 57.6096 46.1743 58.829 45.0557 60.4678C44.1812 61.749 43.3516 63.0444 42.8253 64.5193C42.7023 64.8639 42.7615 65.0508 43.047 65.2467C45.0668 66.6327 47.1968 67.6273 49.7419 67.3445C51.1567 67.1872 52.5032 66.7545 53.8777 66.4307C57.0702 65.6786 60.1786 64.6015 63.3956 63.9481C63.678 63.8908 67.9625 63.8392 71.1416 63.8529C72.1145 63.777 74.4943 63.8928 74.6405 63.9392C77.0548 64.7049 79.104 66.0264 80.6345 68.0706C81.6005 69.361 81.8925 70.9149 82.1012 72.4727C82.3058 73.9993 82.3679 75.537 81.7494 76.9895C81.1307 78.4421 80.1446 79.6638 79.138 80.862C79.0003 81.026 78.8407 81.1248 78.6188 80.9831C78.3388 80.8044 78.3632 80.5708 78.4815 80.3176C78.9437 79.3288 79.3821 78.3302 79.7247 77.2919C79.7758 77.137 79.8245 76.981 79.8818 76.7818C79.969 76.4899 80.0107 76.0931 80.1694 75.8355C79.6215 74.6214 78.6271 70.6171 78.577 70.4873C77.2223 68.644 75.3587 67.8046 73.1318 67.6023C71.9145 67.4917 70.7093 67.5234 69.4974 67.6223C69.0392 67.6597 68.7446 67.857 68.4936 68.2462C66.2497 71.7261 63.7668 75.0113 60.7289 77.8456C57.4941 80.8638 53.9264 83.3978 50.0116 85.4507C47.4192 86.81 44.7282 87.9332 42.0113 89.0049C41.6521 89.1465 41.3405 89.0795 41.014 88.9559C37.1937 87.5087 33.4415 85.9209 29.9049 83.8419C23.8107 80.2592 18.7018 75.5742 14.4021 69.9754C13.6833 69.0394 13.0721 68.0205 12.3805 67.0624C12.0627 66.6221 12.1211 66.2988 12.4719 65.9132C14.5022 63.6812 16.5076 61.4263 18.5375 59.1939C21.6684 55.7507 24.8138 52.3211 27.9499 48.8828C30.841 45.7131 33.7228 42.535 36.618 39.3691C39.2556 36.485 41.8851 33.5927 44.5585 30.7424C45.97 29.2376 46.0326 27.5199 45.4962 25.7008C45.248 24.8595 44.5415 24.4415 43.689 24.3247C43.2409 24.2633 42.7855 24.2231 42.3337 24.2266C38.4529 24.2567 34.578 23.8438 30.699 24.0073C28.2054 24.1124 25.7041 24.2318 23.2333 24.6373C21.9883 24.8416 20.8888 25.5035 19.6961 25.8645C17.1604 26.6316 15.1985 28.3315 13.1057 29.8248C12.0712 30.5629 11.0507 31.3216 10.0033 32.0404C9.08265 32.6723 8.1828 32.504 7.55329 31.5799C7.03472 30.8187 6.68819 29.9879 6.71998 29.03C6.84265 25.3333 6.9443 21.6359 7.08004 17.9398C7.10342 17.3035 7.1679 16.6664 7.1436 16.03C7.12745 15.6068 7.3011 15.4057 7.69347 15.2922C10.2008 14.5673 12.7041 13.8279 15.2087 13.0936C21.0684 11.3757 26.9244 9.6446 32.7902 7.94775C34.7919 7.36867 36.8033 6.82304 38.7887 6.18813ZM42.9617 13.3847C42.814 13.3294 42.6498 13.2104 42.5266 13.4049C42.4268 13.5625 42.571 13.6754 42.6488 13.7912C43.5714 15.1655 44.4726 16.5555 45.4264 17.9078C46.4423 19.348 47.116 20.8986 47.3125 22.6707C47.4644 24.041 47.9265 25.3615 47.9312 26.7644C47.9413 29.8389 47.1585 32.6814 45.4749 35.2397C43.115 38.8261 40.7028 42.3779 38.3056 45.9395C35.9295 49.4699 33.4966 52.963 31.1833 56.5345C30.0483 58.2869 29.1103 60.1728 28.8152 62.2987C28.3769 65.4581 28.1394 68.6101 29.3638 71.6662C31.1826 76.2058 34.2084 79.5089 38.9308 81.0857C41.1825 81.8376 43.49 81.8582 45.816 81.7491C46.2865 81.727 46.7558 81.6805 47.2745 81.6374C49.0111 81.4314 50.6451 81.0225 52.3032 80.4263C52.0255 80.1254 51.7798 80.1846 51.5444 80.2755C49.8275 80.9387 48.0184 81.132 46.2108 81.2038C45.0015 81.2519 43.8087 80.9148 42.6322 80.6057C41.9837 80.4353 41.3773 79.9864 40.5674 80.402C40.7327 79.8513 40.4197 79.7457 40.1272 79.607C37.0195 78.1337 35.2056 75.5954 34.1813 72.3787C33.8259 71.2626 33.5844 70.1295 33.392 68.9801C33.374 68.8731 33.3771 68.7309 33.3111 68.6685C32.507 67.9076 32.7739 66.9393 32.8585 66.0481C32.9825 64.7409 33.3569 63.4791 33.8139 62.2471C33.8453 62.1623 33.8815 62.0759 33.9332 62.0028C34.0278 61.8687 34.1398 61.7109 34.3256 61.7822C34.5108 61.8534 34.5125 62.0497 34.4706 62.2084C34.3545 62.6482 34.2319 63.0873 34.0854 63.5176C33.5385 65.1244 33.5094 66.7206 34.0711 68.3381C34.2752 68.9259 34.0958 69.1865 34.4706 69.7266C34.7127 70.0755 34.6614 71.0938 34.9729 71.3352C34.929 72.0016 35.3897 72.5419 35.8312 72.9856C36.7973 73.9565 37.6749 75.0321 38.8626 75.7609C39.0169 75.8555 39.163 76.015 39.3478 75.9817C40.3749 76.2891 41.1812 76.6987 42.0113 76.9761C42.9703 77.2965 42.8106 77.3257 43.8029 77.4097C43.9282 77.4203 44.3666 77.5365 44.8307 77.3873C44.8204 77.3943 44.8103 77.4017 44.8004 77.4097C45.8468 77.6375 46.858 77.4898 47.8465 77.3415C51.0424 76.8621 53.8985 75.5233 56.5494 73.7086C56.8272 73.5184 57.1753 73.3995 57.299 73.0288C57.3289 72.939 57.4211 72.9038 57.5178 72.8919C58.0377 72.8283 58.4383 72.5523 58.6878 72.1099C58.9496 71.6461 59.4657 71.6088 59.8472 71.3667C61.4383 70.3566 63.1135 69.4872 64.8147 68.6738C64.9272 68.62 65.0535 68.5927 65.1758 68.5628C65.3404 68.5226 67.096 67.5883 67.2347 67.4827C67.3324 67.4085 67.4502 67.347 67.5684 67.3158C70.6063 66.5131 73.6146 66.3783 76.5336 67.7867C77.4249 68.2168 78.1908 68.824 78.8052 69.6164C79.2965 69.9061 80.5769 73.9874 80.5828 75.5781C81.0057 75.6288 79.4079 78.3003 79.8818 78.9141C80.5471 78.0684 81.4547 75.6825 81.4824 74.6057C81.5284 72.8264 81.2527 71.0876 80.5892 69.4263C80.0378 68.0457 78.9471 67.1426 77.7969 66.3C76.8698 65.6208 75.8433 65.119 74.8014 64.6487C74.6055 64.5604 73.0047 64.4323 71.8709 64.2596C68.7615 64.4152 64.026 64.4598 63.7755 64.5281C59.7535 65.6226 55.7407 66.7558 51.6982 67.7692C48.2581 68.6316 45.1216 67.8902 42.3895 65.5813C41.7856 65.0709 41.3283 64.4679 41.3101 63.6109C41.2996 63.1134 40.9593 62.741 40.6935 62.3551C40.4448 61.9941 40.3244 61.6092 40.34 61.1757C40.389 59.8151 40.2908 58.4384 40.7699 57.1241C40.8196 56.9876 40.8858 56.857 40.9381 56.7213C41.3784 55.58 42.23 55.1646 43.4202 55.0708C44.6881 54.9708 45.8645 55.261 47.0596 55.5516C47.9132 55.7592 48.7293 55.8926 49.5867 55.4277C50.0541 55.1742 50.6887 55.2774 51.1354 54.8547C51.3824 54.621 51.5339 54.373 51.6245 54.0362C51.9532 52.8146 52.3899 51.6369 53.0994 50.5715C53.4276 50.0785 53.7658 49.5646 53.7331 48.9243C53.7168 48.6067 53.921 48.471 54.1567 48.3572C54.6 48.1433 54.9232 47.8212 55.1171 47.3608C55.2595 47.0227 55.2931 46.6992 55.1188 46.3623C55.0271 46.185 54.9556 45.9965 54.8846 45.8093C54.69 45.2968 54.7569 44.8631 55.2093 44.4932C55.6437 44.138 56.0494 43.7453 56.4519 43.3528C57.124 42.6973 57.1762 42.2028 56.6242 41.4281C55.7948 40.2642 55.1955 38.9809 54.6289 37.6774C54.2096 36.7126 54.1174 35.7184 54.2878 34.6833C54.4472 33.7146 54.5607 32.7382 54.7179 31.7692C54.7759 31.4115 54.6734 31.0823 54.6307 30.7418C54.5301 29.9413 54.5211 29.1202 54.6554 28.3457C54.8841 27.0252 54.5672 25.8231 54.1833 24.6021C53.6749 22.9855 53.187 21.356 52.2422 19.9313C50.5702 17.41 48.3238 15.5606 45.5563 14.3651C44.7084 13.9988 43.8277 13.7086 42.9617 13.3847ZM45.0608 77.2907C44.9843 77.3314 44.9071 77.3628 44.8307 77.3873C44.9021 77.339 44.9822 77.3142 45.0608 77.2907ZM45.4188 77.0204C45.35 77.2065 45.2081 77.2468 45.0608 77.2907C45.1834 77.2257 45.3045 77.1378 45.4188 77.0204Z" fill="white"/>
<path d="M28.1401 98.8322C29.1238 97.172 30.0893 95.5472 31.0977 93.8502C30.6649 93.8236 30.2983 93.7884 29.9314 93.7816C29.3514 93.7709 28.7711 93.7798 28.1909 93.7793C26.2075 93.778 25.8388 94.0293 25.1679 95.8974C25.0632 96.1888 24.9061 96.3133 24.6073 96.2795C24.2776 96.2422 24.3353 96.004 24.3452 95.7866C24.3814 94.9865 24.4239 94.1866 24.4488 93.3861C24.4597 93.0388 24.6052 92.9177 24.9546 92.9178C27.5466 92.9189 30.1388 92.9015 32.7308 92.8947C33.0927 92.8937 33.4546 92.9182 33.8165 92.9331C34.3694 92.9559 34.5218 93.2221 34.2376 93.7207C33.5801 94.8743 32.914 96.0232 32.2396 97.1669C30.7338 99.7204 29.2201 102.269 27.7115 104.821C27.6018 105.007 27.5072 105.201 27.4112 105.382C27.5796 105.619 27.7968 105.542 27.9818 105.543C29.0515 105.552 30.1213 105.553 31.1909 105.548C32.4665 105.542 32.9281 105.227 33.4095 104.03C33.5382 103.71 33.6348 103.376 33.7428 103.048C33.825 102.799 34.0048 102.711 34.2489 102.741C34.5204 102.776 34.5509 102.984 34.5189 103.191C34.3764 104.114 34.4289 105.044 34.4142 105.972C34.4085 106.324 34.2513 106.446 33.9104 106.446C30.7738 106.443 27.6373 106.454 24.5007 106.45C23.9224 106.45 23.7809 106.132 24.1147 105.562C24.9975 104.056 25.893 102.557 26.7887 101.059C27.2272 100.325 27.6771 99.5977 28.1401 98.8322Z" fill="white"/>
<path d="M56.8821 97.1482C57.8779 97.9359 57.9722 99.0428 58.0086 100.137C58.0557 101.557 58.0155 102.98 58.0284 104.402C58.035 105.138 58.2027 105.275 58.9431 105.193C59.2035 105.164 59.3582 105.3 59.4739 105.494C59.5979 105.701 59.4289 105.833 59.3096 105.964C58.3948 106.964 56.5752 106.896 55.7389 105.832C55.6502 105.719 55.5547 105.612 55.4707 105.512C55.208 105.507 55.1151 105.715 54.9733 105.841C53.9293 106.767 52.3985 106.97 51.1618 106.338C49.5923 105.536 49.3249 103.494 50.6274 102.302C51.3177 101.671 52.1552 101.336 53.0269 101.068C53.6506 100.875 54.2749 100.684 54.9051 100.515C55.24 100.426 55.3873 100.245 55.3785 99.8947C55.3657 99.3843 55.3742 98.8722 55.2398 98.3753C55.1019 97.8652 54.8768 97.4307 54.3092 97.2671C53.6902 97.0888 53.2457 97.2641 52.9621 97.8443C52.7822 98.2121 52.7704 98.6193 52.7031 99.0127C52.5866 99.6945 52.0434 100.158 51.4247 100.091C50.6894 100.011 50.2042 99.4232 50.2764 98.694C50.338 98.0707 50.6768 97.6054 51.1516 97.2391C52.075 96.527 53.1562 96.3234 54.2825 96.363C55.1942 96.3951 56.0876 96.5541 56.8821 97.1482ZM52.4562 104.081C52.6136 104.923 53.074 105.329 53.8015 105.266C54.6616 105.191 55.3816 104.517 55.3884 103.774C55.393 103.284 55.3992 102.794 55.3859 102.304C55.3773 101.992 55.4672 101.66 55.2792 101.349C54.5036 101.532 53.7911 101.79 53.1734 102.245C52.5942 102.671 52.3147 103.256 52.4562 104.081Z" fill="white"/>
<path d="M36.0759 104.717C34.7205 102.577 34.8539 99.7444 36.3708 97.9567C37.9245 96.1258 40.8854 95.7778 42.6466 97.2575C43.8281 98.2501 44.1624 99.6021 44.0825 101.09C44.0611 101.491 43.7774 101.521 43.4615 101.519C41.8492 101.513 40.2368 101.515 38.6243 101.511C37.8848 101.509 37.8056 101.599 37.9232 102.33C38.1875 103.974 38.9748 104.893 40.3911 105.127C41.5282 105.315 42.5002 104.981 43.2435 104.059C43.3892 103.878 43.4922 103.565 43.8322 103.816C44.1532 104.052 44.057 104.287 43.8868 104.566C42.021 107.626 37.644 107.174 36.0759 104.717ZM41.5355 99.974C41.5439 99.4432 41.4887 98.9182 41.3195 98.4155C41.1309 97.8552 40.7993 97.4031 40.1864 97.2771C39.5488 97.1461 39.0155 97.3389 38.6095 97.8747C38.1025 98.5436 38.0034 99.3366 37.9041 100.129C37.8684 100.415 38.0496 100.513 38.3063 100.512C39.2475 100.51 40.1888 100.507 41.13 100.506C41.429 100.505 41.5568 100.35 41.5355 99.974Z" fill="white"/>
<path d="M46.2527 106.448C45.8359 106.45 45.4732 106.452 45.1105 106.455C44.8708 106.457 44.6719 106.392 44.6249 106.123C44.5838 105.888 44.7587 105.798 44.9337 105.739C45.453 105.566 45.6015 105.167 45.6013 104.672C45.6001 101.354 45.5964 98.037 45.5991 94.7195C45.5994 94.2417 45.5017 93.8584 44.962 93.7263C44.7414 93.6723 44.5752 93.5173 44.5998 93.2494C44.6237 92.9882 44.8293 92.9412 45.0283 92.9113C45.8587 92.7868 46.6399 92.497 47.4293 92.2258C48.0658 92.0069 48.2526 92.1705 48.2509 92.8342C48.2402 96.7349 48.2374 100.636 48.2243 104.536C48.2225 105.095 48.3518 105.551 48.9442 105.736C49.1566 105.802 49.2285 105.945 49.1987 106.153C49.1609 106.415 48.9688 106.449 48.7553 106.449C47.9391 106.448 47.123 106.448 46.2527 106.448Z" fill="white"/>
<path d="M30.3584 110.703C30.2583 110.703 30.1683 110.685 30.0885 110.65C30.0102 110.614 29.9485 110.564 29.9035 110.502C29.8586 110.437 29.8353 110.364 29.8339 110.281H30.045C30.0523 110.352 30.0812 110.413 30.132 110.462C30.1843 110.51 30.2597 110.534 30.3584 110.534C30.4528 110.534 30.5268 110.511 30.5804 110.464C30.6356 110.416 30.6631 110.355 30.6631 110.281C30.6631 110.223 30.6471 110.175 30.6152 110.138C30.5834 110.102 30.5434 110.074 30.4955 110.055C30.4476 110.037 30.3831 110.016 30.3018 109.994C30.2017 109.968 30.1212 109.942 30.0602 109.915C30.0007 109.889 29.9492 109.849 29.9057 109.793C29.8636 109.736 29.8426 109.66 29.8426 109.565C29.8426 109.482 29.8636 109.409 29.9057 109.344C29.9478 109.28 30.0066 109.231 30.082 109.196C30.1589 109.161 30.2466 109.143 30.3453 109.143C30.4876 109.143 30.6036 109.179 30.6936 109.25C30.785 109.322 30.8365 109.417 30.8481 109.535H30.6305C30.6232 109.477 30.5927 109.425 30.5391 109.382C30.4854 109.336 30.4142 109.314 30.3258 109.314C30.2431 109.314 30.1756 109.336 30.1233 109.379C30.0711 109.422 30.045 109.481 30.045 109.559C30.045 109.615 30.0602 109.659 30.0907 109.694C30.1226 109.729 30.1611 109.757 30.206 109.775C30.2525 109.793 30.3171 109.814 30.3998 109.837C30.4999 109.864 30.5804 109.892 30.6414 109.92C30.7023 109.946 30.7545 109.988 30.7981 110.044C30.8416 110.1 30.8634 110.176 30.8634 110.272C30.8634 110.346 30.8438 110.416 30.8046 110.482C30.7654 110.548 30.7074 110.601 30.6305 110.642C30.5535 110.682 30.4629 110.703 30.3584 110.703ZM32.2431 110.042C32.2431 110.08 32.2409 110.12 32.2365 110.163H31.2832C31.2905 110.281 31.3305 110.374 31.4029 110.44C31.4769 110.506 31.5662 110.539 31.6706 110.539C31.7563 110.539 31.8274 110.519 31.8839 110.48C31.9421 110.439 31.9827 110.385 32.0058 110.318H32.2191C32.1872 110.433 32.1234 110.527 32.0276 110.6C31.9318 110.671 31.8129 110.707 31.6706 110.707C31.5575 110.707 31.4559 110.682 31.3659 110.631C31.2775 110.579 31.2078 110.507 31.157 110.414C31.1063 110.319 31.0808 110.21 31.0808 110.086C31.0808 109.962 31.1055 109.853 31.1548 109.76C31.2042 109.667 31.2731 109.595 31.3616 109.546C31.4516 109.494 31.5546 109.469 31.6706 109.469C31.7838 109.469 31.8839 109.494 31.971 109.543C32.0581 109.593 32.1249 109.662 32.1713 109.749C32.2191 109.835 32.2431 109.933 32.2431 110.042ZM32.0385 110.001C32.0385 109.925 32.0218 109.86 31.9884 109.806C31.9551 109.75 31.9094 109.709 31.8513 109.681C31.7947 109.652 31.7316 109.638 31.6619 109.638C31.5618 109.638 31.4763 109.669 31.4051 109.734C31.3355 109.798 31.2956 109.887 31.2854 110.001H32.0385ZM32.9965 109.469C33.0994 109.469 33.1894 109.492 33.2664 109.537C33.3447 109.582 33.4027 109.639 33.4405 109.708V109.489H33.6407V110.714C33.6407 110.823 33.6175 110.92 33.5711 111.005C33.5246 111.091 33.4579 111.158 33.3708 111.206C33.2852 111.254 33.1851 111.278 33.0705 111.278C32.9138 111.278 32.7832 111.241 32.6787 111.167C32.5742 111.092 32.5125 110.99 32.4937 110.863H32.6896C32.7114 110.936 32.7563 110.994 32.8245 111.038C32.8927 111.082 32.9747 111.105 33.0705 111.105C33.1793 111.105 33.2678 111.071 33.336 111.003C33.4057 110.934 33.4405 110.837 33.4405 110.714V110.462C33.4013 110.532 33.3432 110.59 33.2664 110.637C33.1894 110.684 33.0994 110.707 32.9965 110.707C32.8905 110.707 32.7941 110.681 32.707 110.628C32.6214 110.576 32.5539 110.503 32.5046 110.408C32.4552 110.312 32.4306 110.205 32.4306 110.084C32.4306 109.961 32.4552 109.854 32.5046 109.762C32.5539 109.669 32.6214 109.597 32.707 109.546C32.7941 109.494 32.8905 109.469 32.9965 109.469ZM33.4405 110.086C33.4405 109.995 33.4223 109.916 33.3861 109.85C33.3497 109.783 33.3004 109.732 33.2381 109.697C33.1771 109.66 33.1097 109.642 33.0357 109.642C32.9617 109.642 32.8942 109.659 32.8332 109.694C32.7723 109.729 32.7237 109.781 32.6874 109.848C32.6511 109.914 32.633 109.993 32.633 110.084C32.633 110.176 32.6511 110.255 32.6874 110.324C32.7237 110.391 32.7723 110.444 32.8332 110.48C32.8942 110.515 32.9617 110.532 33.0357 110.532C33.1097 110.532 33.1771 110.515 33.2381 110.48C33.3004 110.444 33.3497 110.391 33.3861 110.324C33.4223 110.255 33.4405 110.177 33.4405 110.086ZM35.0332 109.489V110.688H34.8351V110.51C34.7975 110.572 34.7445 110.62 34.6762 110.655C34.6095 110.689 34.5355 110.705 34.4542 110.705C34.3614 110.705 34.2779 110.686 34.2039 110.648C34.1299 110.609 34.0712 110.551 34.0276 110.473C33.9856 110.395 33.9645 110.301 33.9645 110.191V109.489H34.1604V110.165C34.1604 110.283 34.1902 110.374 34.2496 110.438C34.3092 110.5 34.3905 110.532 34.4934 110.532C34.5994 110.532 34.6828 110.499 34.7437 110.434C34.8046 110.368 34.8351 110.273 34.8351 110.147V109.489H35.0332ZM35.5657 109.683C35.6005 109.615 35.6499 109.562 35.7137 109.524C35.779 109.485 35.8581 109.467 35.9509 109.467V109.673H35.8987C35.6767 109.673 35.5657 109.794 35.5657 110.036V110.688H35.3676V109.489H35.5657V109.683ZM36.1056 110.084C36.1056 109.961 36.1303 109.854 36.1796 109.762C36.2289 109.669 36.2963 109.597 36.382 109.546C36.469 109.494 36.5656 109.469 36.6715 109.469C36.7759 109.469 36.8666 109.492 36.9435 109.537C37.0205 109.582 37.0777 109.639 37.1155 109.708V109.489H37.3157V110.688H37.1155V110.464C37.0763 110.534 37.0175 110.592 36.9392 110.639C36.8622 110.684 36.7724 110.707 36.6693 110.707C36.5634 110.707 36.4676 110.681 36.382 110.628C36.2963 110.576 36.2289 110.503 36.1796 110.408C36.1303 110.312 36.1056 110.205 36.1056 110.084ZM37.1155 110.086C37.1155 109.995 37.0973 109.916 37.0611 109.85C37.0248 109.783 36.9754 109.732 36.9131 109.697C36.8521 109.66 36.7846 109.642 36.7106 109.642C36.6366 109.642 36.5692 109.659 36.5082 109.694C36.4473 109.729 36.3986 109.781 36.3624 109.848C36.3262 109.914 36.308 109.993 36.308 110.084C36.308 110.176 36.3262 110.255 36.3624 110.324C36.3986 110.391 36.4473 110.444 36.5082 110.48C36.5692 110.515 36.6366 110.532 36.7106 110.532C36.7846 110.532 36.8521 110.515 36.9131 110.48C36.9754 110.444 37.0248 110.391 37.0611 110.324C37.0973 110.255 37.1155 110.177 37.1155 110.086ZM38.2316 109.467C38.3767 109.467 38.4942 109.512 38.5842 109.6C38.6741 109.688 38.7192 109.815 38.7192 109.981V110.688H38.5233V110.009C38.5233 109.89 38.4934 109.798 38.434 109.736C38.3745 109.671 38.2932 109.64 38.1903 109.64C38.0858 109.64 38.0023 109.673 37.94 109.738C37.879 109.804 37.8485 109.899 37.8485 110.025V110.688H37.6505V109.489H37.8485V109.659C37.8877 109.598 37.9406 109.551 38.0074 109.517C38.0756 109.483 38.1503 109.467 38.2316 109.467ZM39.5498 110.539C39.6369 110.539 39.7094 110.518 39.7675 110.478C39.8255 110.437 39.8654 110.378 39.8872 110.303H40.1005C40.0714 110.416 40.0141 110.509 39.9286 110.583C39.8443 110.654 39.7384 110.695 39.6108 110.705V110.814C39.6963 110.813 39.7646 110.831 39.8154 110.869C39.8661 110.907 39.8916 110.961 39.8916 111.031C39.8916 111.1 39.8668 111.155 39.8175 111.195C39.7681 111.235 39.7044 111.256 39.626 111.256H39.3757V111.127H39.5868C39.6347 111.127 39.6695 111.12 39.6913 111.105C39.7145 111.091 39.7261 111.066 39.7261 111.031C39.7261 110.997 39.7145 110.973 39.6913 110.959C39.6695 110.945 39.6347 110.937 39.5868 110.937H39.478V110.703C39.3779 110.693 39.2893 110.661 39.2125 110.609C39.1355 110.555 39.0753 110.483 39.0318 110.394C38.9897 110.304 38.9687 110.201 38.9687 110.086C38.9687 109.962 38.9933 109.854 39.0427 109.762C39.092 109.669 39.1602 109.597 39.2473 109.546C39.3358 109.494 39.4367 109.469 39.5498 109.469C39.6963 109.469 39.8168 109.505 39.9111 109.576C40.0069 109.647 40.07 109.747 40.1005 109.874H39.8872C39.8668 109.8 39.8269 109.744 39.7675 109.701C39.7094 109.658 39.6369 109.638 39.5498 109.638C39.4367 109.638 39.3452 109.677 39.2756 109.756C39.2059 109.833 39.1711 109.943 39.1711 110.086C39.1711 110.23 39.2059 110.342 39.2756 110.421C39.3452 110.499 39.4367 110.539 39.5498 110.539ZM40.2907 110.084C40.2907 109.961 40.3154 109.854 40.3647 109.762C40.4141 109.669 40.4816 109.597 40.5672 109.546C40.6542 109.494 40.7507 109.469 40.8566 109.469C40.9611 109.469 41.0519 109.492 41.1287 109.537C41.2056 109.582 41.263 109.639 41.3006 109.708V109.489H41.5009V110.688H41.3006V110.464C41.2615 110.534 41.2027 110.592 41.1243 110.639C41.0475 110.684 40.9575 110.707 40.8545 110.707C40.7486 110.707 40.6528 110.681 40.5672 110.628C40.4816 110.576 40.4141 110.503 40.3647 110.408C40.3154 110.312 40.2907 110.205 40.2907 110.084ZM41.3006 110.086C41.3006 109.995 41.2826 109.916 41.2462 109.85C41.21 109.783 41.1607 109.732 41.0982 109.697C41.0373 109.66 40.9698 109.642 40.8958 109.642C40.8218 109.642 40.7543 109.659 40.6934 109.694C40.6324 109.729 40.5839 109.781 40.5476 109.848C40.5113 109.914 40.4931 109.993 40.4931 110.084C40.4931 110.176 40.5113 110.255 40.5476 110.324C40.5839 110.391 40.6324 110.444 40.6934 110.48C40.7543 110.515 40.8218 110.532 40.8958 110.532C40.9698 110.532 41.0373 110.515 41.0982 110.48C41.1607 110.444 41.21 110.391 41.2462 110.324C41.2826 110.255 41.3006 110.177 41.3006 110.086ZM42.5182 109.294C42.4804 109.294 42.4486 109.281 42.4224 109.255C42.3963 109.228 42.3833 109.196 42.3833 109.158C42.3833 109.12 42.3963 109.088 42.4224 109.062C42.4486 109.036 42.4804 109.023 42.5182 109.023C42.5544 109.023 42.5849 109.036 42.6096 109.062C42.6357 109.088 42.6488 109.12 42.6488 109.158C42.6488 109.196 42.6357 109.228 42.6096 109.255C42.5849 109.281 42.5544 109.294 42.5182 109.294ZM42.614 109.489V110.688H42.4159V109.489H42.614ZM43.5327 109.467C43.6778 109.467 43.7953 109.512 43.8853 109.6C43.9752 109.688 44.0202 109.815 44.0202 109.981V110.688H43.8243V110.009C43.8243 109.89 43.7945 109.798 43.7351 109.736C43.6756 109.671 43.5943 109.64 43.4913 109.64C43.3869 109.64 43.3034 109.673 43.241 109.738C43.1801 109.804 43.1496 109.899 43.1496 110.025V110.688H42.9516V109.489H43.1496V109.659C43.1888 109.598 43.2417 109.551 43.3085 109.517C43.3766 109.483 43.4514 109.467 43.5327 109.467ZM44.5854 109.653V110.359C44.5854 110.417 44.5977 110.459 44.6224 110.484C44.647 110.507 44.6898 110.519 44.7508 110.519H44.8966V110.688H44.7181C44.6078 110.688 44.5251 110.662 44.47 110.611C44.4148 110.56 44.3873 110.476 44.3873 110.359V109.653H44.2328V109.489H44.3873V109.187H44.5854V109.489H44.8966V109.653H44.5854ZM46.2249 110.042C46.2249 110.08 46.2227 110.12 46.2183 110.163H45.265C45.2723 110.281 45.3121 110.374 45.3847 110.44C45.4587 110.506 45.5479 110.539 45.6524 110.539C45.7381 110.539 45.8091 110.519 45.8657 110.48C45.9237 110.439 45.9644 110.385 45.9876 110.318H46.2009C46.169 110.433 46.1051 110.527 46.0094 110.6C45.9136 110.671 45.7947 110.707 45.6524 110.707C45.5392 110.707 45.4377 110.682 45.3477 110.631C45.2592 110.579 45.1896 110.507 45.1388 110.414C45.0879 110.319 45.0626 110.21 45.0626 110.086C45.0626 109.962 45.0873 109.853 45.1366 109.76C45.1859 109.667 45.2549 109.595 45.3434 109.546C45.4334 109.494 45.5363 109.469 45.6524 109.469C45.7656 109.469 45.8657 109.494 45.9528 109.543C46.0398 109.593 46.1066 109.662 46.153 109.749C46.2009 109.835 46.2249 109.933 46.2249 110.042ZM46.0203 110.001C46.0203 109.925 46.0036 109.86 45.9702 109.806C45.9368 109.75 45.8911 109.709 45.8331 109.681C45.7765 109.652 45.7134 109.638 45.6437 109.638C45.5436 109.638 45.4579 109.669 45.3869 109.734C45.3172 109.798 45.2773 109.887 45.2672 110.001H46.0203ZM46.6843 109.069V110.688H46.4863V109.069H46.6843ZM47.1242 109.294C47.0864 109.294 47.0546 109.281 47.0284 109.255C47.0023 109.228 46.9893 109.196 46.9893 109.158C46.9893 109.12 47.0023 109.088 47.0284 109.062C47.0546 109.036 47.0864 109.023 47.1242 109.023C47.1604 109.023 47.1909 109.036 47.2156 109.062C47.2417 109.088 47.2548 109.12 47.2548 109.158C47.2548 109.196 47.2417 109.228 47.2156 109.255C47.1909 109.281 47.1604 109.294 47.1242 109.294ZM47.22 109.489V110.688H47.0219V109.489H47.22ZM48.0494 109.469C48.1525 109.469 48.2424 109.492 48.3193 109.537C48.3977 109.582 48.4557 109.639 48.4935 109.708V109.489H48.6937V110.714C48.6937 110.823 48.6705 110.92 48.6241 111.005C48.5776 111.091 48.5109 111.158 48.4238 111.206C48.3382 111.254 48.238 111.278 48.1234 111.278C47.9667 111.278 47.8361 111.241 47.7317 111.167C47.6272 111.092 47.5655 110.99 47.5467 110.863H47.7426C47.7643 110.936 47.8093 110.994 47.8775 111.038C47.9457 111.082 48.0277 111.105 48.1234 111.105C48.2323 111.105 48.3208 111.071 48.389 111.003C48.4586 110.934 48.4935 110.837 48.4935 110.714V110.462C48.4543 110.532 48.3963 110.59 48.3193 110.637C48.2424 110.684 48.1525 110.707 48.0494 110.707C47.9436 110.707 47.847 110.681 47.76 110.628C47.6743 110.576 47.6068 110.503 47.5576 110.408C47.5083 110.312 47.4835 110.205 47.4835 110.084C47.4835 109.961 47.5083 109.854 47.5576 109.762C47.6068 109.669 47.6743 109.597 47.76 109.546C47.847 109.494 47.9436 109.469 48.0494 109.469ZM48.4935 110.086C48.4935 109.995 48.4753 109.916 48.4391 109.85C48.4028 109.783 48.3534 109.732 48.291 109.697C48.2301 109.66 48.1626 109.642 48.0886 109.642C48.0146 109.642 47.9472 109.659 47.8862 109.694C47.8253 109.729 47.7766 109.781 47.7404 109.848C47.7041 109.914 47.686 109.993 47.686 110.084C47.686 110.176 47.7041 110.255 47.7404 110.324C47.7766 110.391 47.8253 110.444 47.8862 110.48C47.9472 110.515 48.0146 110.532 48.0886 110.532C48.1626 110.532 48.2301 110.515 48.291 110.48C48.3534 110.444 48.4028 110.391 48.4391 110.324C48.4753 110.255 48.4935 110.177 48.4935 110.086ZM50.1167 110.042C50.1167 110.08 50.1146 110.12 50.1102 110.163H49.1569C49.1641 110.281 49.204 110.374 49.2766 110.44C49.3506 110.506 49.4398 110.539 49.5443 110.539C49.6298 110.539 49.701 110.519 49.7576 110.48C49.8156 110.439 49.8562 110.385 49.8795 110.318H50.0928C50.0608 110.433 49.997 110.527 49.9012 110.6C49.8055 110.671 49.6864 110.707 49.5443 110.707C49.4311 110.707 49.3295 110.682 49.2396 110.631C49.151 110.579 49.0813 110.507 49.0306 110.414C48.9798 110.319 48.9545 110.21 48.9545 110.086C48.9545 109.962 48.979 109.853 49.0285 109.76C49.0778 109.667 49.1466 109.595 49.2352 109.546C49.3251 109.494 49.4282 109.469 49.5443 109.469C49.6575 109.469 49.7576 109.494 49.8447 109.543C49.9317 109.593 49.9984 109.662 50.0449 109.749C50.0928 109.835 50.1167 109.933 50.1167 110.042ZM49.9121 110.001C49.9121 109.925 49.8954 109.86 49.8621 109.806C49.8287 109.75 49.783 109.709 49.7249 109.681C49.6684 109.652 49.6052 109.638 49.5356 109.638C49.4355 109.638 49.3498 109.669 49.2788 109.734C49.2091 109.798 49.1692 109.887 49.159 110.001H49.9121ZM50.9593 109.467C51.1043 109.467 51.2219 109.512 51.3119 109.6C51.4019 109.688 51.4468 109.815 51.4468 109.981V110.688H51.2509V110.009C51.2509 109.89 51.2212 109.798 51.1617 109.736C51.1022 109.671 51.021 109.64 50.9179 109.64C50.8134 109.64 50.73 109.673 50.6676 109.738C50.6067 109.804 50.5762 109.899 50.5762 110.025V110.688H50.3781V109.489H50.5762V109.659C50.6154 109.598 50.6684 109.551 50.7351 109.517C50.8033 109.483 50.878 109.467 50.9593 109.467ZM52.012 109.653V110.359C52.012 110.417 52.0243 110.459 52.049 110.484C52.0737 110.507 52.1164 110.519 52.1774 110.519H52.3232V110.688H52.1447C52.0345 110.688 51.9518 110.662 51.8966 110.611C51.8414 110.56 51.8139 110.476 51.8139 110.359V109.653H51.6593V109.489H51.8139V109.187H52.012V109.489H52.3232V109.653H52.012ZM53.6514 110.042C53.6514 110.08 53.6493 110.12 53.6449 110.163H52.6916C52.6989 110.281 52.7387 110.374 52.8113 110.44C52.8853 110.506 52.9745 110.539 53.079 110.539C53.1646 110.539 53.2357 110.519 53.2923 110.48C53.3503 110.439 53.391 110.385 53.4142 110.318H53.6275C53.5956 110.433 53.5317 110.527 53.436 110.6C53.3402 110.671 53.2212 110.707 53.079 110.707C52.9658 110.707 52.8643 110.682 52.7743 110.631C52.6858 110.579 52.6162 110.507 52.5653 110.414C52.5145 110.319 52.4892 110.21 52.4892 110.086C52.4892 109.962 52.5139 109.853 52.5632 109.76C52.6125 109.667 52.6815 109.595 52.7699 109.546C52.8599 109.494 52.9629 109.469 53.079 109.469C53.1922 109.469 53.2923 109.494 53.3794 109.543C53.4664 109.593 53.5331 109.662 53.5796 109.749C53.6275 109.835 53.6514 109.933 53.6514 110.042ZM53.4468 110.001C53.4468 109.925 53.4302 109.86 53.3968 109.806C53.3634 109.75 53.3177 109.709 53.2597 109.681C53.2031 109.652 53.1399 109.638 53.0703 109.638C52.9702 109.638 52.8845 109.669 52.8135 109.734C52.7438 109.798 52.7039 109.887 52.6938 110.001H53.4468Z" fill="white"/>
</g>
</g>
<defs>
<clipPath id="clip0_91_96">
<rect width="90" height="112" fill="white"/>
</clipPath>
</defs>
</svg>
